:version 1.10
:name ASF
:units
  mass 1
  length 1
  angle deg
:documentation
  ASF file generated by Kaydara
:root
  axis xyz
  order  tx ty tz rx ry rz
  position 0 0 0
  orientation 0 0 0
:bonedata
  begin
    id 1
    name RightUpLegDummy
    direction -0.718183 -0.695806 0.00816078
    length 4.904
    axis 0 0 0 xyz
  end
  begin
    id 2
    name RightUpLeg
    direction 3.53373e-006 -0.995788 0.0916898
    length 17.4976
    axis -3.49089 -0.000906625 0.000286804 xyz
    dof rx ry rz
  end
  begin
    id 3
    name RightLeg
    direction 0.00371092 -0.995096 -0.0988419
    length 16.5821
    axis 3.68512 0.0193738 -0.131023 xyz
    dof rx ry rz
  end
  begin
    id 4
    name RightFoot
    direction 0.00079151 -0.46099 0.887405
    length 3.77069
    axis 4.81691e-005 -0.120479 -0.188788 xyz
    dof rx ry rz
  end
  begin
    id 5
    name RightToes
    direction 0 0 0
    length 0
    axis 0 0 0 xyz
    dof rx ry rz
  end
  begin
    id 6
    name SpineDummy
    direction 8.3039e-015 1 4.57515e-016
    length 4.6813
    axis 0 0 0 xyz
  end
  begin
    id 7
    name Spine
    direction -3.15643e-008 0.999988 0.00495137
    length 10.1015
    axis -0.001389 0.000121418 2.40972e-006 xyz
    dof rx ry rz
  end
  begin
    id 8
    name Spine1
    direction 0 0 0
    length 0
    axis -0.001389 0.000121451 1.30017e-006 xyz
    dof rx ry rz
  end
  begin
    id 9
    name HEadDummy
    direction -1.99912e-008 0.999999 0.00127422
    length 3.43865
    axis -0.001389 0.000121451 1.30017e-006 xyz
  end
  begin
    id 10
    name HEad
    direction 0 0 0
    length 0
    axis 0 0 0 xyz
    dof rx ry rz
  end
  begin
    id 11
    name LeftShoulder1Dummy
    direction 0.998891 -0.0402509 -0.0244456
    length 3.5433
    axis -0.001389 0.000121451 1.30017e-006 xyz
  end
  begin
    id 12
    name LeftShoulder1
    direction 0.99951 -0.000327763 0.0313091
    length 4.05031
    axis -0.001389 0.000121451 1.30017e-006 xyz
    dof rx ry rz
  end
  begin
    id 13
    name LeftArm
    direction 0.998561 -0.00100056 -0.0536182
    length 10.3537
    axis -23.1894 0.134784 0.967509 xyz
    dof rx ry rz
  end
  begin
    id 14
    name LeftForeArm
    direction 0.998903 0.00866432 0.046012
    length 8.70632
    axis -9.91835 -0.06569 -0.177794 xyz
    dof rx ry rz
  end
  begin
    id 15
    name LeftHand
    direction 0 0 0
    length 0
    axis 0 0 0 xyz
    dof rx ry rz
  end
  begin
    id 16
    name RightShoulderDummy
    direction -0.998891 -0.0402509 -0.0244414
    length 3.5433
    axis -0.001389 0.000121451 1.30017e-006 xyz
  end
  begin
    id 17
    name RightShoulder
    direction -0.99951 -0.000327807 0.0313133
    length 4.05031
    axis 0.215806 0.000203643 -0.0068026 xyz
    dof rx ry rz
  end
  begin
    id 18
    name RightArm
    direction -0.998573 -0.000999564 -0.053403
    length 10.3947
    axis -23.2009 -0.134239 -0.964101 xyz
    dof rx ry rz
  end
  begin
    id 19
    name RightForeArm
    direction -0.998898 0.00868028 0.0461306
    length 8.68355
    axis -9.92322 0.0658061 0.178868 xyz
    dof rx ry rz
  end
  begin
    id 20
    name RightHand
    direction 0 0 0
    length 0
    axis 0 0 0 xyz
    dof rx ry rz
  end
  begin
    id 21
    name LeftUpLegDummy
    direction 0.718183 -0.695806 0.00816078
    length 4.904
    axis 0 0 0 xyz
  end
  begin
    id 22
    name LeftUpLeg
    direction -6.81752e-006 -0.995793 0.0916337
    length 17.4976
    axis -3.48766 0.00143442 -0.000524262 xyz
    dof rx ry rz
  end
  begin
    id 23
    name LeftLeg
    direction -0.00601358 -0.995091 -0.0987824
    length 16.5821
    axis 3.68178 -0.00654042 -0.000285133 xyz
    dof rx ry rz
  end
  begin
    id 24
    name LeftFoot
    direction -0.00417578 -0.460984 0.887399
    length 3.77069
    axis 1.87233e-006 4.66016e-005 -8.6538e-006 xyz
    dof rx ry rz
  end
  begin
    id 25
    name LeftToes
    direction 0 0 0
    length 0
    axis 0 0 0 xyz
    dof rx ry rz
  end
:hierarchy
  begin
    root RightUpLegDummy SpineDummy LeftUpLegDummy
    RightUpLegDummy RightUpLeg
    RightUpLeg RightLeg
    RightLeg RightFoot
    RightFoot RightToes
    SpineDummy Spine
    Spine Spine1
    Spine1 HEadDummy LeftShoulder1Dummy RightShoulderDummy
    HEadDummy HEad
    LeftShoulder1Dummy LeftShoulder1
    LeftShoulder1 LeftArm
    LeftArm LeftForeArm
    LeftForeArm LeftHand
    RightShoulderDummy RightShoulder
    RightShoulder RightArm
    RightArm RightForeArm
    RightForeArm RightHand
    LeftUpLegDummy LeftUpLeg
    LeftUpLeg LeftLeg
    LeftLeg LeftFoot
    LeftFoot LeftToes
  end

:SAMPLES-PER-SECOND 30
:FULLY-SPECIFIED
:DEGREES
292
root  34.5866 39.8479 8.08844 8.76465 74.9239 12.9128
RightUpLeg  -8.753 -6.81515 -13.1725
RightLeg  14.6663 0.92598 -0.248571
RightFoot  -0.0104961 -0.597502 6.01535
RightToes  0.000481921 0.542163 -0.142578
Spine  11.79 -1.05107 0.58801
Spine1  8.61701 -1.55118 1.42076
HEad  20.3155 14.1275 -8.15226
LeftShoulder1  6.68468 -12.789 -34.9667
LeftArm  -8.87559 -23.235 -46.0499
LeftForeArm  -162.606 -51.4986 -169.258
LeftHand  -0.25398 0.0180481 5.50724
RightShoulder  5.1713 11.0363 29.5894
RightArm  1.53728 26.588 57.7774
RightForeArm  -171.242 60.1978 164.333
RightHand  0.225618 -1.32533 6.81483
LeftUpLeg  -0.459158 16.9899 3.40252
LeftLeg  15.2834 19.5907 2.02056
LeftFoot  -6.40997 0.231296 -4.48257
LeftToes  1.06244e-005 4.65869e-005 -8.65518e-006
293
root  34.571 39.8093 8.11691 5.69104 72.5036 9.71472
RightUpLeg  -9.56519 -6.2031 -12.282
RightLeg  14.6512 2.41851 0.153427
RightFoot  0.209594 -0.588554 5.82693
RightToes  0.000481921 0.542163 -0.142578
Spine  13.0251 -0.847935 2.12473
Spine1  7.67328 -0.890721 0.448913
HEad  19.7773 14.3337 -7.75402
LeftShoulder1  6.50067 -12.981 -33.3929
LeftArm  -10.2848 -25.0307 -46.2182
LeftForeArm  -162.204 -51.5437 -169.267
LeftHand  -0.25398 0.0180481 5.50724
RightShoulder  4.96297 10.9664 28.2929
RightArm  0.854611 30.5997 58.1211
RightForeArm  -175.298 63.0837 162.039
RightHand  0.15216 -1.66634 5.20882
LeftUpLeg  -0.640533 20.5701 4.17382
LeftLeg  16.3514 18.3111 2.82099
LeftFoot  -6.81073 0.232955 -4.85492
LeftToes  1.06244e-005 4.65869e-005 -8.65518e-006
294
root  34.5241 39.7155 8.16765 3.66949 71.1589 7.81525
RightUpLeg  -10.2334 -5.64668 -11.6305
RightLeg  15.5272 2.99965 0.462961
RightFoot  -0.13968 -0.561001 5.70524
RightToes  0.000481921 0.542163 -0.142578
Spine  14.4271 -0.873204 3.45988
Spine1  7.47175 -0.509484 -0.387864
HEad  18.4926 14.3688 -7.51875
LeftShoulder1  6.33855 -13.2347 -31.8275
LeftArm  -11.6867 -26.5195 -46.9889
LeftForeArm  -161.032 -50.8367 -169.614
LeftHand  -0.25398 0.0180481 5.50724
RightShoulder  4.80091 10.8983 27.3026
RightArm  0.3484 32.4103 57.8303
RightForeArm  -175.642 63.6288 161.574
RightHand  0.110241 -1.98169 4.33517
LeftUpLeg  -1.37129 24.2374 4.50601
LeftLeg  18.1779 15.7033 4.4497
LeftFoot  -7.19548 0.22544 -5.03437
LeftToes  1.06244e-005 4.65869e-005 -8.65518e-006
295
root  34.4888 39.6271 8.30773 3.2467 71.5064 7.58429
RightUpLeg  -10.542 -5.6397 -11.4354
RightLeg  16.8942 2.49913 0.526282
RightFoot  -0.958641 -0.5095 5.52942
RightToes  0.000481921 0.542163 -0.142578
Spine  15.6763 -1.11731 2.86064
Spine1  7.31486 -1.07722 0.726261
HEad  17.4625 14.8882 -7.80654
LeftShoulder1  6.28 -13.3676 -31.1773
LeftArm  -13.0345 -26.5892 -47.6192
LeftForeArm  -160.507 -49.3674 -170.19
LeftHand  -0.25398 0.0180481 5.50724
RightShoulder  4.73532 11.0444 26.4864
RightArm  -0.264318 30.394 56.3254
RightForeArm  -173.726 61.644 163.171
RightHand  0.106608 -2.12472 4.45636
LeftUpLeg  -2.07195 25.0666 4.53096
LeftLeg  19.4909 14.13 5.43849
LeftFoot  -7.2275 0.230305 -5.20228
LeftToes  1.06244e-005 4.65869e-005 -8.65518e-006
296
root  34.4975 39.5915 8.5841 4.67334 73.9688 9.12555
RightUpLeg  -10.2416 -7.08602 -11.6399
RightLeg  18.2832 1.32832 0.268539
RightFoot  -2.08467 -0.442275 5.28178
RightToes  0.000481921 0.542163 -0.142578
Spine  16.6761 -1.56719 0.290764
Spine1  6.82286 -2.62134 3.7471
HEad  16.9944 15.5903 -8.23178
LeftShoulder1  6.20713 -13.0594 -31.4345
LeftArm  -13.3426 -25.3842 -48.3344
LeftForeArm  -160.05 -47.8908 -170.736
LeftHand  -0.25398 0.0180481 5.50724
RightShoulder  4.90877 11.2068 27.3301
RightArm  -0.930428 23.5066 52.1483
RightForeArm  -169.725 57.6585 165.905
RightHand  0.189264 -1.88142 6.84195
LeftUpLeg  -2.47649 23.6338 4.49446
LeftLeg  19.6805 12.7605 5.20169
LeftFoot  -6.81526 0.251951 -5.33928
LeftToes  1.06244e-005 4.65869e-005 -8.65518e-006
297
root  34.5598 39.6272 9.01607 13.9825 78.8505 18.3109
RightUpLeg  -9.13276 -10.6194 -12.1136
RightLeg  19.2817 -0.293921 -0.325537
RightFoot  -3.36213 -0.378373 5.09357
RightToes  0.000481921 0.542163 -0.142578
Spine  17.2165 -2.18276 -3.21792
Spine1  6.51241 -4.77947 7.94393
HEad  16.4194 15.2998 -8.58753
LeftShoulder1  5.97709 -12.1117 -32.2438
LeftArm  -11.6802 -24.1426 -49.7228
LeftForeArm  -159.022 -47.3965 -170.963
LeftHand  -0.25398 0.0180481 5.50724
RightShoulder  5.2978 10.9438 30.7272
RightArm  -2.73856 12.5203 44.2945
RightForeArm  -165.075 52.4561 168.698
RightHand  0.375867 -1.00563 10.1478
LeftUpLeg  -2.89597 20.7092 4.33974
LeftLeg  18.6098 10.505 4.00034
LeftFoot  -5.80251 0.287157 -5.22416
LeftToes  1.06244e-005 4.65869e-005 -8.65518e-006
298
root  34.6581 39.7162 9.58802 15.3514 86.8134 19.0818
RightUpLeg  -7.37323 -16.2529 -12.7358
RightLeg  19.7403 -2.51709 -1.21136
RightFoot  -4.59181 -0.330169 5.0667
RightToes  0.000481921 0.542163 -0.142578
Spine  17.2091 -2.83719 -6.73669
Spine1  6.46463 -7.18799 13.07
HEad  15.3984 13.2502 -9.41814
LeftShoulder1  5.71498 -10.9319 -33.5451
LeftArm  -8.44892 -23.5115 -51.4015
LeftForeArm  -158.468 -48.1513 -170.739
LeftHand  -0.25398 0.0180481 5.50724
RightShoulder  5.40546 10.0173 34.0384
RightArm  -8.49551 -0.557834 34.7984
RightForeArm  -161.665 47.716 170.715
RightHand  0.566562 -0.10082 12.412
LeftUpLeg  -3.91748 16.3815 4.08652
LeftLeg  16.5882 7.08095 2.16369
LeftFoot  -4.06921 0.342623 -5.00623
LeftToes  1.06244e-005 4.65869e-005 -8.65518e-006
